M48
; DRILL file {KiCad 5.1.6-c6e7f7d~87~ubuntu18.04.1} date Wed Aug  5 12:53:25 2020
; FORMAT={-:-/ absolute / metric / decimal}
; #@! TF.CreationDate,2020-08-05T12:53:25+02:00
; #@! TF.GenerationSoftware,Kicad,Pcbnew,5.1.6-c6e7f7d~87~ubuntu18.04.1
FMAT,2
METRIC
T1C0.750
T2C0.800
T3C0.900
T4C1.000
T5C1.100
T6C1.470
T7C4.000
%
G90
G05
T1
X509.061Y-115.926
X511.061Y-115.926
X513.061Y-115.926
X515.061Y-115.926
X92.044Y-116.586
X94.044Y-116.586
X96.044Y-116.586
X98.044Y-116.586
T2
X213.614Y-201.295
X213.614Y-208.915
X137.287Y-201.295
X137.287Y-208.915
X444.627Y-201.295
X444.627Y-208.915
X323.088Y-182.245
X323.088Y-189.865
X316.484Y-152.527
X316.484Y-155.027
X444.754Y-163.195
X444.754Y-170.815
X417.068Y-234.061
X417.068Y-241.681
X170.688Y-182.245
X170.688Y-189.865
X458.089Y-142.494
X468.249Y-142.494
X361.061Y-163.195
X361.061Y-170.815
X135.128Y-234.061
X135.128Y-241.681
X199.263Y-163.195
X199.263Y-170.815
X165.989Y-220.218
X165.989Y-227.838
X332.74Y-127.127
X332.74Y-134.747
X121.094Y-146.852
X121.094Y-149.352
X351.663Y-127.127
X351.663Y-134.747
X463.423Y-117.983
X473.583Y-117.983
X482.854Y-220.091
X482.854Y-227.711
X267.843Y-142.494
X267.843Y-152.654
X313.817Y-234.061
X313.817Y-241.681
X275.463Y-163.195
X275.463Y-170.815
X294.513Y-163.195
X294.513Y-170.815
X242.189Y-220.218
X242.189Y-227.838
X436.499Y-127.127
X436.499Y-134.747
X247.015Y-127.127
X247.015Y-134.747
X161.1Y-127.127
X161.1Y-134.747
X342.265Y-182.245
X342.265Y-189.865
X339.852Y-234.061
X339.852Y-241.681
X265.938Y-182.245
X265.938Y-189.865
X237.871Y-234.061
X237.871Y-241.681
X141.986Y-127.127
X141.986Y-134.747
X318.389Y-220.218
X318.389Y-227.838
X417.195Y-182.245
X417.195Y-189.865
X141.986Y-163.195
X141.986Y-170.815
X482.854Y-201.295
X482.854Y-208.915
X502.031Y-163.195
X502.031Y-170.815
X232.664Y-201.295
X232.664Y-208.915
X156.337Y-201.295
X156.337Y-208.915
X463.804Y-201.295
X463.804Y-208.915
X482.346Y-117.983
X492.506Y-117.983
X463.804Y-163.195
X463.804Y-170.815
X189.738Y-182.245
X189.738Y-189.865
X281.305Y-143.891
X281.305Y-151.511
X108.585Y-182.245
X108.585Y-189.865
X292.053Y-150.114
X297.053Y-150.114
X218.44Y-163.195
X218.44Y-170.815
X185.039Y-220.218
X185.039Y-227.838
X370.84Y-127.127
X370.84Y-134.747
X327.914Y-201.295
X327.914Y-208.915
X359.969Y-201.32
X359.969Y-208.94
X436.245Y-182.245
X436.245Y-189.865
X270.764Y-201.295
X270.764Y-208.915
X180.213Y-127.127
X180.213Y-134.747
X366.37Y-182.27
X366.37Y-189.89
X284.988Y-182.245
X284.988Y-189.865
X276.987Y-142.621
X276.987Y-152.781
X292.053Y-145.161
X297.053Y-145.161
X208.788Y-182.245
X208.788Y-189.865
X398.018Y-163.195
X398.018Y-170.815
X313.563Y-163.195
X313.563Y-170.815
X398.018Y-182.245
X398.018Y-189.865
X261.366Y-220.218
X261.366Y-227.838
X161.036Y-163.195
X161.036Y-170.815
X502.031Y-127.127
X502.031Y-134.747
X121.361Y-220.218
X121.361Y-227.838
X266.065Y-127.127
X266.065Y-134.747
X251.587Y-201.295
X251.587Y-208.915
X319.786Y-140.335
X319.786Y-155.575
X322.326Y-140.335
X322.326Y-155.575
X324.866Y-140.335
X324.866Y-155.575
X327.406Y-140.335
X327.406Y-155.575
X329.946Y-140.335
X329.946Y-155.575
X332.486Y-140.335
X332.486Y-155.575
X335.026Y-140.335
X335.026Y-155.575
X337.566Y-140.335
X337.566Y-155.575
X340.106Y-140.335
X340.106Y-155.575
X342.646Y-140.335
X342.646Y-155.575
X345.186Y-140.335
X345.186Y-155.575
X347.726Y-140.335
X347.726Y-155.575
X350.266Y-140.335
X350.266Y-155.575
X352.806Y-140.335
X352.806Y-155.575
X355.346Y-140.335
X355.346Y-155.575
X357.886Y-140.335
X357.886Y-155.575
X360.426Y-140.335
X360.426Y-155.575
X362.966Y-140.335
X362.966Y-155.575
X365.506Y-140.335
X365.506Y-155.575
X368.046Y-140.335
X368.046Y-155.575
X175.387Y-201.295
X175.387Y-208.915
X482.854Y-163.195
X482.854Y-170.815
X365.887Y-234.061
X365.887Y-241.681
X417.068Y-220.218
X417.068Y-227.838
X161.417Y-234.061
X161.417Y-241.681
X132.461Y-182.245
X132.461Y-189.865
X316.484Y-140.883
X316.484Y-143.383
X354.076Y-220.218
X354.076Y-227.838
X398.145Y-127.127
X398.145Y-134.747
X289.814Y-201.295
X289.814Y-208.915
X444.754Y-220.091
X444.754Y-227.711
X285.369Y-143.891
X285.369Y-151.511
X444.183Y-117.983
X454.342Y-117.983
X444.754Y-182.245
X444.754Y-189.865
X482.854Y-234.188
X482.854Y-241.808
X237.49Y-163.195
X237.49Y-170.815
X436.245Y-163.195
X436.245Y-170.815
X280.289Y-220.218
X280.289Y-227.838
X204.089Y-220.218
X204.089Y-227.838
X103.759Y-163.195
X103.759Y-170.815
X285.496Y-127.127
X285.496Y-134.747
X482.854Y-182.245
X482.854Y-189.865
X199.39Y-127.127
X199.39Y-134.747
X111.252Y-201.295
X111.252Y-208.915
X272.415Y-142.494
X272.415Y-152.654
X304.038Y-182.245
X304.038Y-189.865
X502.031Y-182.245
X502.031Y-189.865
X227.838Y-182.245
X227.838Y-189.865
X436.118Y-234.061
X436.118Y-241.681
X332.613Y-163.195
X332.613Y-170.815
X302.006Y-145.161
X302.006Y-150.041
X180.213Y-163.195
X180.213Y-170.815
X502.031Y-200.914
X502.031Y-208.534
X146.939Y-220.218
X146.939Y-227.838
X308.737Y-201.295
X308.737Y-208.915
X194.564Y-201.295
X194.564Y-208.915
X454.152Y-234.188
X454.152Y-241.808
X463.804Y-182.245
X463.804Y-189.865
X398.018Y-234.061
X398.018Y-241.681
X151.638Y-182.245
X151.638Y-189.865
X108.712Y-234.061
X108.712Y-241.681
X223.139Y-220.218
X223.139Y-227.838
X417.322Y-127.127
X417.322Y-134.747
X227.965Y-127.127
X227.965Y-134.747
X463.804Y-220.091
X463.804Y-227.711
X104.521Y-127.127
X104.521Y-134.747
X246.888Y-182.245
X246.888Y-189.865
X256.413Y-163.195
X256.413Y-170.815
X299.339Y-220.218
X299.339Y-227.838
X417.195Y-163.195
X417.195Y-170.815
X122.809Y-163.195
X122.809Y-170.815
X501.904Y-234.061
X501.904Y-241.681
X313.817Y-127.127
X313.817Y-134.747
T3
X485.902Y-123.444
X488.442Y-123.444
X467.042Y-123.444
X469.582Y-123.444
X447.993Y-123.38
X450.532Y-123.38
T4
X108.648Y-148.136
X113.728Y-148.145
X495.808Y-134.493
X495.808Y-137.033
X495.808Y-139.573
X498.348Y-134.493
X498.348Y-137.033
X498.348Y-139.573
T5
X465.836Y-133.604
X465.836Y-138.104
X472.336Y-133.604
X472.336Y-138.104
X454.406Y-133.604
X454.406Y-138.104
X460.906Y-133.604
X460.906Y-138.104
T6
X315.762Y-201.803
X320.762Y-201.303
X192.127Y-220.726
X197.127Y-220.226
X470.829Y-182.754
X475.829Y-182.254
X110.784Y-163.703
X115.784Y-163.203
X268.391Y-220.726
X273.391Y-220.226
X405.043Y-239.649
X410.043Y-239.149
X177.776Y-182.754
X182.776Y-182.254
X384.183Y-127.167
X384.683Y-132.167
X489.942Y-163.703
X494.942Y-163.203
X258.675Y-201.803
X263.675Y-201.303
X144.375Y-201.803
X149.375Y-201.303
X232.99Y-127.167
X233.49Y-132.167
X405.106Y-163.703
X410.106Y-163.203
X509.119Y-182.754
X514.12Y-182.254
X489.942Y-220.663
X494.942Y-220.163
X225.465Y-163.703
X230.465Y-163.203
X99.036Y-201.803
X104.036Y-201.303
X163.489Y-201.803
X168.489Y-201.303
X149.265Y-239.649
X154.265Y-239.149
X299.792Y-127.167
X300.292Y-132.167
X509.119Y-163.703
X514.12Y-163.203
X489.942Y-239.713
X494.942Y-239.213
X129.898Y-163.703
X134.898Y-163.203
X128.024Y-127.167
X128.524Y-132.167
X507.056Y-232.196
X507.556Y-237.196
X349.036Y-163.703
X354.036Y-163.203
X196.763Y-182.754
X201.763Y-182.254
X301.601Y-163.703
X306.601Y-163.203
X273.09Y-182.754
X278.09Y-182.254
X134.85Y-220.726
X139.85Y-220.226
X211.114Y-220.726
X216.114Y-220.226
X451.779Y-220.663
X456.779Y-220.163
X287.314Y-220.726
X292.314Y-220.226
X225.592Y-239.649
X230.592Y-239.149
X403.297Y-127.167
X403.797Y-132.167
X185.302Y-127.167
X185.802Y-132.167
X277.852Y-201.803
X282.852Y-201.303
X182.475Y-201.803
X187.475Y-201.303
X461.304Y-239.713
X466.304Y-239.213
X405.106Y-182.754
X410.106Y-182.254
X451.779Y-163.703
X456.779Y-163.203
X424.156Y-182.754
X429.156Y-182.254
X244.451Y-163.703
X249.451Y-163.203
X509.119Y-201.677
X514.12Y-201.177
X104.053Y-220.726
X109.053Y-220.226
X320.524Y-163.703
X325.524Y-163.203
X470.765Y-201.74
X475.765Y-201.24
X154.028Y-220.726
X159.028Y-220.226
X356.688Y-127.167
X357.188Y-132.167
X489.942Y-201.677
X494.942Y-201.177
X149.075Y-163.703
X154.075Y-163.203
X318.715Y-127.167
X319.215Y-132.167
X252.04Y-127.167
X252.54Y-132.167
X353.735Y-182.754
X358.735Y-182.254
X215.94Y-182.754
X220.94Y-182.254
X201.653Y-201.803
X206.653Y-201.303
X292.077Y-182.754
X297.077Y-182.254
X168.124Y-163.703
X173.124Y-163.203
X230.164Y-220.726
X235.164Y-220.226
X306.364Y-220.726
X311.364Y-220.226
X96.623Y-239.649
X101.623Y-239.149
X405.043Y-220.726
X410.043Y-220.226
X147.075Y-127.167
X147.575Y-132.167
X422.41Y-127.167
X422.91Y-132.167
X296.775Y-201.803
X301.775Y-201.303
X386.056Y-182.754
X391.056Y-182.254
X353.735Y-239.649
X358.735Y-239.149
X301.601Y-239.649
X306.601Y-239.149
X330.049Y-182.754
X335.049Y-182.254
X470.829Y-163.703
X475.829Y-163.203
X490.006Y-182.754
X495.006Y-182.254
X263.438Y-163.703
X268.438Y-163.203
X451.779Y-201.74
X456.779Y-201.24
X346.75Y-201.803
X351.75Y-201.303
X139.549Y-182.754
X144.549Y-182.254
X311.063Y-182.754
X316.063Y-182.254
X173.014Y-220.726
X178.014Y-220.226
X120.436Y-182.754
X125.436Y-182.254
X91.67Y-163.703
X96.67Y-163.203
X386.056Y-163.703
X391.056Y-163.203
X213.94Y-127.167
X214.44Y-132.167
X385.993Y-239.649
X390.993Y-239.149
X239.752Y-201.803
X244.752Y-201.303
X125.198Y-201.803
X130.198Y-201.303
X234.926Y-182.754
X239.926Y-182.254
X220.766Y-201.803
X225.766Y-201.303
X470.829Y-220.663
X475.829Y-220.163
X187.174Y-163.703
X192.174Y-163.203
X249.277Y-220.726
X254.277Y-220.226
X424.029Y-239.649
X429.029Y-239.149
X123.039Y-239.649
X128.04Y-239.149
X158.726Y-182.754
X163.726Y-182.254
X89.924Y-127.167
X90.424Y-132.167
X507.119Y-127.103
X507.619Y-132.103
X271.09Y-127.167
X271.59Y-132.167
X337.702Y-127.167
X338.202Y-132.167
X424.156Y-163.703
X429.156Y-163.203
X327.7Y-239.649
X332.7Y-239.149
X206.415Y-163.703
X211.415Y-163.203
X166.188Y-127.167
X166.688Y-132.167
X451.779Y-182.754
X456.779Y-182.254
X96.496Y-182.754
X101.496Y-182.254
X282.551Y-163.703
X287.551Y-163.203
X341.924Y-220.726
X346.924Y-220.226
X253.976Y-182.754
X258.976Y-182.254
T7
X518.058Y-148.946
X87.935Y-148.946
T0
M30
